<svg xmlns="http://www.w3.org/2000/svg" width="1680" height="980" viewBox="0 0 1680 980">
  <defs>
    <linearGradient id="bg" x1="0" y1="0" x2="1" y2="1">
      <stop offset="0%" stop-color="#f8fbff"/>
      <stop offset="100%" stop-color="#eef4ff"/>
    </linearGradient>
    <style>
      .title { font: 700 34px 'Segoe UI', Arial, sans-serif; fill: #0f172a; }
      .subtitle { font: 500 16px 'Segoe UI', Arial, sans-serif; fill: #334155; }
      .zone-title { font: 700 16px 'Segoe UI', Arial, sans-serif; fill: #0f172a; }
      .box-title { font: 700 15px 'Segoe UI', Arial, sans-serif; fill: #0f172a; }
      .box-sub { font: 500 12px 'Segoe UI', Arial, sans-serif; fill: #334155; }
      .edge { stroke: #2563eb; stroke-width: 2.5; fill: none; marker-end: url(#arrow); }
      .edge-soft { stroke: #64748b; stroke-width: 2; fill: none; marker-end: url(#arrowSoft); }
    </style>
    <marker id="arrow" markerWidth="10" markerHeight="10" refX="9" refY="5" orient="auto">
      <path d="M0,0 L10,5 L0,10 z" fill="#2563eb"/>
    </marker>
    <marker id="arrowSoft" markerWidth="10" markerHeight="10" refX="9" refY="5" orient="auto">
      <path d="M0,0 L10,5 L0,10 z" fill="#64748b"/>
    </marker>
  </defs>
  <rect width="1680" height="980" fill="url(#bg)"/>
  <text x="56" y="58" class="title">Permission Group Architecture</text>
  <text x="56" y="86" class="subtitle">Logical separation between admin channels, permission application services, and access-control data structures.</text>

  <rect x="48" y="120" width="430" height="790" rx="16" fill="#ffffff" stroke="#cbd5e1"/>
  <text x="64" y="150" class="zone-title">Client Channels</text>
  <rect x="76" y="190" width="374" height="110" rx="12" fill="#e0ecff" stroke="#93c5fd"/>
  <text x="96" y="222" class="box-title">Admin Dashboard</text>
  <text x="96" y="246" class="box-sub">Permission setup, group mapping, manager visibility scope</text>
  <rect x="76" y="330" width="374" height="110" rx="12" fill="#e0ecff" stroke="#93c5fd"/>
  <text x="96" y="362" class="box-title">Reviewer Workspace</text>
  <text x="96" y="386" class="box-sub">Effective-access review and visibility checks</text>

  <rect x="530" y="120" width="580" height="790" rx="16" fill="#ffffff" stroke="#cbd5e1"/>
  <text x="546" y="150" class="zone-title">Application Layer</text>
  <rect x="560" y="190" width="520" height="95" rx="12" fill="#dbeafe" stroke="#60a5fa"/>
  <text x="580" y="222" class="box-title">GraphQL / API Layer</text>
  <text x="580" y="245" class="box-sub">Resolvers, auth context, validation, DTO responses</text>
  <rect x="560" y="320" width="248" height="130" rx="12" fill="#dcfce7" stroke="#86efac"/>
  <text x="578" y="352" class="box-title">Repository Layer</text>
  <text x="578" y="374" class="box-sub">PermissionRepository</text>
  <text x="578" y="394" class="box-sub">Permission scope data access</text>
  <rect x="832" y="320" width="248" height="130" rx="12" fill="#dcfce7" stroke="#86efac"/>
  <text x="850" y="352" class="box-title">Service Layer</text>
  <text x="850" y="384" class="box-sub">PermissionService</text>
  <rect x="560" y="490" width="520" height="145" rx="12" fill="#fee2e2" stroke="#fca5a5"/>
  <text x="580" y="523" class="box-title">Access Orchestration</text>
  <text x="580" y="546" class="box-sub">Coordinates permission setup, group mapping, manager scope, and review</text>
  <text x="580" y="566" class="box-sub">Uses reference dimensions for filtering without making them the permission source of truth</text>
  <text x="580" y="586" class="box-sub">Keeps group definitions separate from effective manager visibility evaluation</text>

  <rect x="1140" y="120" width="492" height="790" rx="16" fill="#ffffff" stroke="#cbd5e1"/>
  <text x="1156" y="150" class="zone-title">Data and Integration Layer</text>
  <rect x="1170" y="210" width="432" height="190" rx="12" fill="#ede9fe" stroke="#c4b5fd"/>
  <text x="1190" y="242" class="box-title">Relational Database</text>
  <text x="1190" y="272" class="box-sub">permissions, permission_by_groups</text>
  <text x="1190" y="296" class="box-sub">employees</text>
  <text x="1190" y="320" class="box-sub">departments, positions, locations, statuses</text>
  <text x="1190" y="344" class="box-sub">Reference dimensions support scoped visibility and filtering</text>

  <path class="edge" d="M450 245 L560 238"/>
  <path class="edge" d="M450 385 L560 238"/>
  <path class="edge" d="M820 285 L684 320"/>
  <path class="edge" d="M840 285 L956 320"/>
  <path class="edge" d="M820 285 L820 490"/>
  <path class="edge-soft" d="M1080 560 L1170 300"/>
</svg>
