<svg xmlns="http://www.w3.org/2000/svg" width="1680" height="980" viewBox="0 0 1680 980">
  <defs>
    <linearGradient id="bg" x1="0" y1="0" x2="1" y2="1">
      <stop offset="0%" stop-color="#f8fbff"/>
      <stop offset="100%" stop-color="#eef4ff"/>
    </linearGradient>
    <style>
      .title { font: 700 34px 'Segoe UI', Arial, sans-serif; fill: #0f172a; }
      .subtitle { font: 500 16px 'Segoe UI', Arial, sans-serif; fill: #334155; }
      .zone-title { font: 700 16px 'Segoe UI', Arial, sans-serif; fill: #0f172a; }
      .box-title { font: 700 15px 'Segoe UI', Arial, sans-serif; fill: #0f172a; }
      .box-sub { font: 500 12px 'Segoe UI', Arial, sans-serif; fill: #334155; }
      .edge { stroke: #2563eb; stroke-width: 2.5; fill: none; marker-end: url(#arrow); }
      .edge-soft { stroke: #64748b; stroke-width: 2; fill: none; marker-end: url(#arrowSoft); }
      .label { font: 600 12px 'Segoe UI', Arial, sans-serif; fill: #1e3a8a; }
    </style>
    <marker id="arrow" markerWidth="10" markerHeight="10" refX="9" refY="5" orient="auto">
      <path d="M0,0 L10,5 L0,10 z" fill="#2563eb"/>
    </marker>
    <marker id="arrowSoft" markerWidth="10" markerHeight="10" refX="9" refY="5" orient="auto">
      <path d="M0,0 L10,5 L0,10 z" fill="#64748b"/>
    </marker>
  </defs>

  <rect x="0" y="0" width="1680" height="980" fill="url(#bg)"/>

  <text x="56" y="58" class="title">Expense Tracking System Architecture</text>
  <text x="56" y="86" class="subtitle">GraphQL Query/Mutation flow with Repository -> Service pattern, DTO/Input boundaries, and loose-coupled expense snapshots.</text>

  <!-- Zones -->
  <rect x="48" y="120" width="430" height="790" rx="16" fill="#ffffff" stroke="#cbd5e1"/>
  <text x="64" y="150" class="zone-title">Client Channels</text>

  <rect x="530" y="120" width="580" height="790" rx="16" fill="#ffffff" stroke="#cbd5e1"/>
  <text x="546" y="150" class="zone-title">Application Layer</text>

  <rect x="1140" y="120" width="492" height="790" rx="16" fill="#ffffff" stroke="#cbd5e1"/>
  <text x="1156" y="150" class="zone-title">Data and Integration Layer</text>

  <!-- Client boxes -->
  <rect x="76" y="190" width="374" height="110" rx="12" fill="#e0ecff" stroke="#93c5fd"/>
  <text x="96" y="222" class="box-title">Dashboard Web App</text>
  <text x="96" y="246" class="box-sub">Setting, Policy, Expense Dashboard, Finance Actions</text>

  <rect x="76" y="330" width="374" height="110" rx="12" fill="#e0ecff" stroke="#93c5fd"/>
  <text x="96" y="362" class="box-title">Mobile App</text>
  <text x="96" y="386" class="box-sub">Direct expense request, approver decision flow</text>

  <rect x="76" y="470" width="374" height="110" rx="12" fill="#e0ecff" stroke="#93c5fd"/>
  <text x="96" y="502" class="box-title">Inbox UI</text>
  <text x="96" y="526" class="box-sub">Approval queue, status timeline, approver actions</text>

  <!-- Application boxes -->
  <rect x="560" y="190" width="520" height="95" rx="12" fill="#dbeafe" stroke="#60a5fa"/>
  <text x="580" y="222" class="box-title">GraphQL Layer (Query / Mutation)</text>
  <text x="580" y="245" class="box-sub">Resolvers + Input validation + auth context</text>

  <rect x="560" y="305" width="248" height="130" rx="12" fill="#dcfce7" stroke="#86efac"/>
  <text x="578" y="336" class="box-title">Repository Layer</text>
  <text x="578" y="358" class="box-sub">ExpenseSettingRepository</text>
  <text x="578" y="378" class="box-sub">ExpenseRepository</text>

  <rect x="832" y="305" width="248" height="130" rx="12" fill="#dcfce7" stroke="#86efac"/>
  <text x="850" y="336" class="box-title">Service Layer</text>
  <text x="850" y="358" class="box-sub">NotificationService, FileService</text>
  <text x="850" y="378" class="box-sub">PermissionService, ExpenseService</text>

  <rect x="560" y="460" width="520" height="145" rx="12" fill="#fee2e2" stroke="#fca5a5"/>
  <text x="580" y="493" class="box-title">Expense Runtime Service</text>
  <text x="580" y="516" class="box-sub">DTO response modeling + domain orchestration</text>
  <text x="580" y="536" class="box-sub">Creates request-time snapshot from policy settings</text>
  <text x="580" y="556" class="box-sub">Sequential approval, paid-out, reclassification lifecycle</text>

  <rect x="560" y="632" width="248" height="130" rx="12" fill="#fef3c7" stroke="#fcd34d"/>
  <text x="578" y="663" class="box-title">Notification Service</text>
  <text x="578" y="685" class="box-sub">FCM + Expo notification delivery</text>
  <text x="578" y="705" class="box-sub">Inbox + push by approval sequence</text>

  <rect x="832" y="632" width="248" height="130" rx="12" fill="#fef3c7" stroke="#fcd34d"/>
  <text x="850" y="663" class="box-title">File Service</text>
  <text x="850" y="685" class="box-sub">AWS S3 object handling</text>
  <text x="850" y="705" class="box-sub">Expense attachment + proof management</text>

  <!-- Data boxes -->
  <rect x="1170" y="210" width="432" height="160" rx="12" fill="#ede9fe" stroke="#c4b5fd"/>
  <text x="1190" y="242" class="box-title">Relational Database</text>
  <text x="1190" y="266" class="box-sub">expense_categories, policy_expenses, policy_expense_approvers</text>
  <text x="1190" y="286" class="box-sub">expenses, expense_approvers (snapshot), expense_files</text>
  <text x="1190" y="306" class="box-sub">files, employees</text>
  <text x="1190" y="326" class="box-sub">Loose coupling: policy change does not mutate existing expenses</text>

  <rect x="1170" y="405" width="432" height="120" rx="12" fill="#ede9fe" stroke="#c4b5fd"/>
  <text x="1190" y="437" class="box-title">AWS S3 Storage</text>
  <text x="1190" y="461" class="box-sub">Uploaded files, proof documents, diagram assets</text>

  <rect x="1170" y="560" width="432" height="120" rx="12" fill="#ede9fe" stroke="#c4b5fd"/>
  <text x="1190" y="592" class="box-title">Queue / Delivery</text>
  <text x="1190" y="616" class="box-sub">Asynchronous notification delivery channel</text>

  <rect x="1170" y="715" width="432" height="120" rx="12" fill="#ede9fe" stroke="#c4b5fd"/>
  <text x="1190" y="747" class="box-title">CloudWatch Logging and Monitoring</text>
  <text x="1190" y="771" class="box-sub">Action trail, status transitions, metrics, compliance logs</text>

  <!-- Edges: clients to API -->
  <path class="edge" d="M450 245 L560 238"/>
  <path class="edge" d="M450 385 L560 238"/>
  <path class="edge" d="M450 525 L560 238"/>

  <!-- API to services -->
  <path class="edge" d="M820 285 L684 305"/>
  <path class="edge" d="M840 285 L956 305"/>
  <path class="edge" d="M820 285 L820 460"/>
  <path class="edge" d="M760 605 L684 632"/>
  <path class="edge" d="M900 605 L956 632"/>

  <!-- services to data -->
  <path class="edge-soft" d="M1080 510 L1170 300"/>
  <path class="edge-soft" d="M1080 685 L1170 460"/>
  <path class="edge-soft" d="M808 695 L1170 620"/>
  <path class="edge-soft" d="M1080 530 L1170 750"/>

  <!-- Loose coupling annotation -->
  <rect x="560" y="790" width="520" height="112" rx="10" fill="#eff6ff" stroke="#93c5fd"/>
  <text x="586" y="827" class="box-title">Loose Coupling Rule</text>
  <text x="586" y="848" class="box-sub">
    <tspan x="586" dy="0">Setting and Policy changes are configuration updates</tspan>
    <tspan x="586" dy="18">for future requests only.</tspan>
    <tspan x="586" dy="18">Existing expense records keep request-time snapshots.</tspan>
  </text>
</svg>
